<?xml version="1.0" encoding="utf-8"?>

<svg version="1.1" id="Icons" xmlns="http://www.w3.org/2000/svg" xmlns:xlink="http://www.w3.org/1999/xlink" x="0px" y="0px"
	 viewBox="0 0 32 32" style="enable-background:new 0 0 32 32;" xml:space="preserve">
<style type="text/css">
	.st0{fill:none;stroke:#000000;stroke-width:2;stroke-linecap:round;stroke-linejoin:round;stroke-miterlimit:10;}
	.st1{fill:none;stroke:#000000;stroke-width:2;stroke-linejoin:round;stroke-miterlimit:10;}
</style>
<path class="st0" d="M16,22L16,22c-2.2,0-4-1.8-4-4v-4h8v4C20,20.2,18.2,22,16,22z"/>
<line class="st0" x1="14" y1="10" x2="14" y2="14"/>
<line class="st0" x1="18" y1="10" x2="18" y2="14"/>
<path class="st0" d="M16,22v3.1c0,2.3-2.3,4-4.4,3.2C6.4,26.4,2.8,21.3,3,15.5C3.3,8.8,8.8,3.3,15.5,3C22.9,2.7,29,8.7,29,16
	c0,5.6-3.5,10.3-8.4,12.2"/>
</svg>
